<?xml version="1.0" standalone="no"?>
<!DOCTYPE svg PUBLIC "-//W3C//DTD SVG 20010904//EN"
 "http://www.w3.org/TR/2001/REC-SVG-20010904/DTD/svg10.dtd">
<svg version="1.0" xmlns="http://www.w3.org/2000/svg"
 width="512.000000pt" height="512.000000pt" viewBox="0 0 512.000000 512.000000"
 preserveAspectRatio="xMidYMid meet">
<metadata>
Created by potrace 1.11, written by Peter Selinger 2001-2013
</metadata>
<g transform="translate(0.000000,512.000000) scale(0.100000,-0.100000)"
fill="#000000" stroke="none">
<path d="M2190 5104 c-545 -82 -1069 -350 -1456 -746 -199 -203 -346 -412
-469 -663 -91 -185 -142 -327 -189 -515 -56 -227 -66 -323 -66 -615 0 -292 10
-388 66 -615 47 -188 98 -330 189 -515 202 -415 507 -759 900 -1018 139 -91
372 -208 530 -265 138 -50 354 -104 510 -128 169 -26 551 -26 720 0 567 86
1079 347 1471 748 199 203 346 412 469 663 91 185 142 327 189 515 56 227 66
323 66 615 0 292 -10 388 -66 615 -47 188 -98 330 -189 515 -202 415 -507 759
-900 1018 -139 91 -372 208 -530 265 -135 49 -364 106 -506 127 -140 20 -602
19 -739 -1z m1299 -1708 c9 -10 7 -32 -10 -91 -11 -42 -19 -79 -16 -81 2 -3
92 5 198 17 170 20 206 21 289 10 207 -25 331 -129 362 -301 27 -158 -58 -372
-191 -476 -103 -81 -232 -110 -292 -65 l-30 22 -46 -30 c-85 -57 -173 -64
-234 -20 l-29 20 -37 -29 c-70 -54 -170 -69 -229 -33 -30 18 -30 18 -60 -5
-46 -37 -131 -65 -220 -71 -100 -7 -145 1 -183 32 l-29 25 -25 -20 c-40 -31
-127 -68 -180 -75 -54 -8 -130 15 -146 43 -9 15 -14 13 -43 -15 -43 -41 -96
-63 -153 -63 -38 0 -52 5 -76 29 -39 40 -38 74 11 249 55 196 54 203 -26 216
-22 4 -53 14 -68 21 -20 11 -28 11 -31 2 -2 -7 -13 -49 -25 -95 -12 -46 -49
-170 -82 -275 -34 -106 -67 -214 -74 -241 -17 -63 -6 -86 42 -86 19 0 445 47
947 105 501 58 933 105 959 105 39 0 50 -5 68 -27 37 -47 8 -140 -49 -158 -32
-10 -2375 -276 -2388 -271 -15 6 -18 42 -3 51 5 3 537 66 1182 141 645 74
1180 137 1190 140 39 12 30 64 -11 64 -14 0 -450 -49 -969 -109 -732 -85 -951
-107 -978 -99 -25 7 -39 19 -51 44 -20 40 -19 46 70 349 31 105 70 246 87 315
17 69 36 142 41 162 16 62 79 61 79 -2 0 -37 18 -50 97 -67 125 -26 131 -57
64 -301 -40 -144 -42 -155 -27 -178 20 -29 50 -31 93 -4 45 27 63 69 123 280
28 101 58 196 65 210 7 14 36 47 63 72 86 81 203 98 257 38 28 -31 32 -117 8
-171 -46 -102 -116 -152 -243 -171 l-84 -13 -12 -40 c-7 -22 -13 -59 -13 -83
-1 -59 39 -102 96 -102 79 1 183 69 183 121 0 45 10 59 41 59 23 0 32 7 48 38
28 56 68 189 91 304 11 57 22 113 25 125 3 12 14 25 26 28 33 11 49 -12 49
-69 0 -42 12 -75 69 -196 82 -172 89 -206 63 -284 l-19 -56 21 13 c39 26 65
100 154 432 68 249 86 331 76 333 -8 2 -295 -29 -638 -69 -344 -39 -636 -69
-650 -65 -29 7 -56 52 -56 91 0 15 13 40 33 61 l32 35 604 69 c332 39 618 70
636 70 20 0 35 -6 39 -15 6 -16 -18 -45 -39 -45 -63 0 -1220 -141 -1231 -151
-18 -14 -18 -33 -1 -48 10 -8 172 7 623 59 335 38 625 72 645 76 36 5 37 6 59
91 29 106 57 138 89 99z m-1710 -303 c80 -40 114 -93 119 -181 10 -204 -165
-403 -393 -445 l-68 -13 -73 -258 c-42 -147 -85 -278 -100 -303 -107 -182
-331 -238 -421 -105 -28 42 -37 100 -23 150 22 84 127 181 167 156 29 -18 21
-46 -20 -74 -109 -74 -103 -212 11 -227 82 -11 180 54 231 152 11 22 81 258
156 524 75 267 141 491 147 498 15 19 52 12 56 -10 2 -9 -22 -110 -53 -222
-32 -113 -55 -208 -52 -211 8 -8 99 18 150 43 73 36 133 97 171 173 56 113 56
199 -2 264 -98 110 -405 51 -567 -109 -74 -73 -108 -140 -109 -213 -1 -46 3
-57 24 -74 49 -40 138 -7 173 66 23 45 16 82 -18 98 -42 19 -22 77 21 62 86
-31 96 -145 21 -231 -42 -47 -99 -73 -165 -73 -48 0 -58 4 -88 34 -32 32 -34
38 -34 100 0 124 67 238 191 325 184 130 411 172 548 104z"/>
<path d="M3583 3171 c-73 -9 -136 -20 -141 -26 -11 -11 -192 -676 -192 -703 0
-33 29 -62 62 -62 43 0 112 43 138 85 12 19 44 115 71 213 55 194 78 242 140
296 67 57 178 83 231 55 14 -8 28 -7 50 2 24 10 32 9 44 -3 13 -13 6 -45 -57
-273 -80 -292 -81 -305 -12 -305 81 0 212 90 267 184 84 143 90 322 16 427
-31 42 -104 89 -172 111 -75 23 -254 23 -445 -1z"/>
<path d="M3750 2958 c-77 -40 -97 -77 -151 -275 -27 -98 -49 -188 -49 -199 0
-64 70 -85 148 -45 67 34 94 86 146 278 25 94 46 183 46 197 0 29 -42 66 -74
66 -12 0 -42 -10 -66 -22z"/>
<path d="M2583 2821 c-45 -28 -79 -84 -99 -164 -9 -37 -15 -69 -13 -71 10 -9
123 14 152 31 38 23 73 71 89 126 10 32 9 44 -3 66 -19 35 -80 40 -126 12z"/>
<path d="M2936 2729 c-3 -8 -13 -43 -21 -79 -21 -83 -59 -173 -97 -229 l-29
-44 24 -25 c34 -34 108 -41 157 -14 48 25 83 93 77 149 -5 49 -104 264 -111
242z"/>
</g>
</svg>
